# xmcd
#
# Track frame offsets:
#	150
#	12080
#	22557
#	35382
#	46637
#	63117
#	79617
#	94440
#	104942
#	115875
#	127870
#	139275
#	151050
#	165227
#	174345
#	192125
#	204560
#	217010
#	229012
#	240407
#
# Disc length: 3366 seconds
#
# Revision: 0
# Processed by: cddbd v1.5.2PL0 Copyright (c) Steve Scherf et al.
# Submitted via: audiograbber 1.83.01
#
DISCID=f20d2414
DTITLE=Stardust - Stardust 007
DYEAR=1998
DGENRE=Country
TTITLE0=King Bee - Rooster Quantrell
TTITLE1=That´s Good Ole Gospel Music - Barbara St. James
TTITLE2=Blue Water - Billy Gramer
TTITLE3=Jealous Heart - Donna Darlene
TTITLE4=I Can Only Love You Like A Man - Jarrod Dukes
TTITLE5=Where You Goin´ - Thunder Ridge
TTITLE6=I´m Not Telling Lies - Preston Coly
TTITLE7=You Gave Me Everything But Love - Leon Douglas
TTITLE8=Last Time She Cheats - Danny Mack
TTITLE9=I´ll Go Out And Find Sombody New - Jerri Arnold
TTITLE10=I Can´t Dance - Ray Sanders
TTITLE11=Home Growin Love - Eddie G
TTITLE12=The Last Time - R. Lee Holmes
TTITLE13=Yodeling Girl From Texas - Shawn Lee
TTITLE14=Shame On Me - Brant Miller
TTITLE15=Hold Me, Kiss Me, Love Me - Ray E. Holmes
TTITLE16=Ugly Colors - John Hamilton
TTITLE17=Don´t Tell Me No Fairy Tales - John Hamilton
TTITLE18=Your Love, The Best Love Of All - John Hamilton
TTITLE19=He Meant Nothing To You - John Hamilton
EXTD=
EXTT0=
EXTT1=
EXTT2=
EXTT3=
EXTT4=
EXTT5=
EXTT6=
EXTT7=
EXTT8=
EXTT9=
EXTT10=
EXTT11=
EXTT12=
EXTT13=
EXTT14=
EXTT15=
EXTT16=
EXTT17=
EXTT18=
EXTT19=
PLAYORDER=
